<svg width="270" height="157" viewBox="0 0 270 157" fill="none" xmlns="http://www.w3.org/2000/svg">
<rect x="4.07602" y="9.68515" width="123.855" height="123.855" stroke="#0029FF" stroke-width="0.479674"/>
<rect x="0.577148" y="7" width="6.51818" height="6.51818" fill="#F8F4CB"/>
<rect x="0.577148" y="129.868" width="6.51818" height="6.51818" fill="#F8F4CB"/>
<rect x="0.577148" y="68.4346" width="6.51818" height="6.51818" fill="#F8F4CB"/>
<rect x="62.8257" y="7" width="6.51818" height="6.51818" fill="#F8F4CB"/>
<rect x="62.8257" y="129.868" width="6.51818" height="6.51818" fill="#F8F4CB"/>
<rect x="125.074" y="7" width="6.51818" height="6.51818" fill="#F8F4CB"/>
<rect x="125.074" y="129.868" width="6.51818" height="6.51818" fill="#F8F4CB"/>
<rect x="125.074" y="68.4346" width="6.51818" height="6.51818" fill="#F8F4CB"/>
<path d="M96.2437 154.544C95.3371 155.45 93.7871 154.808 93.7871 153.526V128.454C93.7871 127.172 95.3371 126.53 96.2437 127.436L114.226 145.418C115.132 146.325 114.49 147.875 113.208 147.875H103.509C103.127 147.875 102.761 148.026 102.491 148.296L96.2437 154.544Z" fill="#F8F4CB" stroke="#0C0C0E" stroke-width="0.639565" stroke-linejoin="round"/>
<path d="M105.357 23.2955L105.357 101.269L80.1804 101.269L80.1804 79.1889L52.0708 79.1889L52.0708 91.8994C52.0708 105.939 40.6894 117.32 26.6498 117.32L26.6499 35.843L52.0708 35.843L52.0708 58.0048L80.1804 58.0048L80.1804 48.472C80.1805 34.5674 91.4523 23.2955 105.357 23.2955Z" fill="#F2AD4B"/>
<path d="M154.488 70.3896H123.984C123.101 70.3896 122.386 71.1055 122.386 71.9885V92.5821C122.386 93.4651 123.101 94.181 123.984 94.181H169.021C169.904 94.181 170.62 93.4651 170.62 92.5821V47.7083C170.62 46.8252 169.904 46.1094 169.021 46.1094H141.614H115.786" stroke="#F8F4CB" stroke-width="13.1111"/>
<path d="M215.514 62.2416L215.514 92.7448C215.514 93.6278 216.23 94.3437 217.113 94.3437L237.707 94.3437C238.59 94.3437 239.306 93.6278 239.306 92.7448L239.306 47.708C239.306 46.825 238.59 46.1091 237.707 46.1091L192.833 46.1091C191.95 46.1091 191.234 46.825 191.234 47.708L191.234 75.1151L191.234 100.943" stroke="#F8F4CB" stroke-width="13.1111"/>
<path d="M263.423 100.943L263.423 8.59894C263.423 7.71588 262.707 7.00003 261.824 7.00003L216.95 7.00002C216.067 7.00002 215.351 7.71588 215.351 8.59894V29.8951" stroke="#F8F4CB" stroke-width="13.1111"/>
</svg>
